<?xml version="1.0" encoding="UTF-8" standalone="no"?>
<!-- Created with Inkscape (http://www.inkscape.org/) -->

<svg
   xmlns:dc="http://purl.org/dc/elements/1.1/"
   xmlns:cc="http://creativecommons.org/ns#"
   xmlns:rdf="http://www.w3.org/1999/02/22-rdf-syntax-ns#"
   xmlns:svg="http://www.w3.org/2000/svg"
   xmlns="http://www.w3.org/2000/svg"
   xmlns:sodipodi="http://sodipodi.sourceforge.net/DTD/sodipodi-0.dtd"
   xmlns:inkscape="http://www.inkscape.org/namespaces/inkscape"
   id="svg2"
   version="1.1"
   inkscape:version="0.91 r13725"
   xml:space="preserve"
   width="451.14999"
   height="118.3625"
   viewBox="0 0 451.14999 118.3625"
   sodipodi:docname="imperial-white-logo.svg"><metadata
     id="metadata8"><rdf:RDF><cc:Work
         rdf:about=""><dc:format>image/svg+xml</dc:format><dc:type
           rdf:resource="http://purl.org/dc/dcmitype/StillImage" /><dc:title></dc:title></cc:Work></rdf:RDF></metadata><defs
     id="defs6" /><sodipodi:namedview
     pagecolor="#ffffff"
     bordercolor="#666666"
     borderopacity="1"
     objecttolerance="10"
     gridtolerance="10"
     guidetolerance="10"
     inkscape:pageopacity="0"
     inkscape:pageshadow="2"
     inkscape:window-width="669"
     inkscape:window-height="480"
     id="namedview4"
     showgrid="false"
     inkscape:zoom="0.80017734"
     inkscape:cx="225.575"
     inkscape:cy="59.181252"
     inkscape:window-x="0"
     inkscape:window-y="0"
     inkscape:window-maximized="0"
     inkscape:current-layer="g10" /><g
     id="g10"
     inkscape:groupmode="layer"
     inkscape:label="ink_ext_XXXXXX"
     transform="matrix(1.25,0,0,-1.25,0,118.3625)"><g
       id="g12"
       transform="scale(0.1,0.1)"><path
         d="m 0,548.488 74.4063,0 0,379.414 -74.4063,0 0,-379.414 z"
         style="fill:#ffffff;fill-opacity:1;fill-rule:nonzero;stroke:none"
         id="path14"
         inkscape:connector-curvature="0" /><path
         d="m 183.574,787.531 1.055,0 c 17.945,24.395 52.223,38.477 83.375,38.477 33.203,0 61.68,-13.559 77.539,-38.477 22.187,21.66 56.465,37.93 87.617,38.477 59.551,0.547 90.742,-36.875 91.797,-99.184 l 0,-177.793 -70.215,0 0,164.77 c 0,31.426 -10.547,63.941 -45.332,63.941 -33.769,0 -54.863,-20.562 -54.863,-67.711 l 0,-161.543 -70.195,0 0,165.313 c 0,37.929 -16.348,63.941 -46.426,63.941 -33.262,0 -53.805,-23.277 -53.805,-69.351 l 0,-159.903 -70.195,0 0,271.016 69.648,0 0,-31.973"
         style="fill:#ffffff;fill-opacity:1;fill-rule:nonzero;stroke:none"
         id="path16"
         inkscape:connector-curvature="0" /><path
         d="m 633.883,819.504 -70.137,0 0,-406.543 70.137,0 0,169.141 c 19.551,-23.887 46.933,-40.098 79.101,-40.098 75.469,0 122.954,76.387 122.954,147.945 0,59.629 -33.735,136.059 -116.567,136.059 -31.66,0 -65.937,-16.27 -84.433,-43.891 l -1.055,0 0,37.387 z m 67.539,-36.875 c 40.058,0 60.117,-46.621 60.117,-93.223 0,-47.695 -15.801,-104.062 -62.734,-104.062 -38.008,0 -64.922,38.476 -64.922,95.39 0,62.34 23.222,101.895 67.539,101.895"
         style="fill:#ffffff;fill-opacity:1;fill-rule:nonzero;stroke:none"
         id="path18"
         inkscape:connector-curvature="0" /><path
         d="m 1106.41,677.512 c 5.21,80.742 -29.09,148.496 -111.371,148.496 -75.449,0 -134.531,-53.125 -134.531,-136.602 0,-89.457 59.59,-147.402 139.277,-147.402 30.055,0 67.515,8.672 103.395,30.332 l -20.05,37.93 c -17.39,-12.446 -44.87,-21.7 -70.69,-21.7 -43.788,0 -78.592,37.965 -76.991,88.946 l 170.961,0 z m -169.926,39.019 c -0.527,36.25 17.383,69.36 57.5,69.36 34.806,0 49.066,-28.188 46.406,-69.36 l -103.906,0"
         style="fill:#ffffff;fill-opacity:1;fill-rule:nonzero;stroke:none"
         id="path20"
         inkscape:connector-curvature="0" /><path
         d="m 1209.9,771.809 1.06,0 14.22,21.132 c 8.43,11.407 23.75,33.067 45.37,33.067 15.84,0 32.69,-8.692 47.5,-24.375 l -26.37,-49.903 c -11.6,5.973 -19,9.239 -33.24,9.239 -24.26,0 -48.03,-20.063 -48.03,-78.594 l 0,-133.887 -70.18,0 0,271.016 69.67,0 0,-47.695"
         style="fill:#ffffff;fill-opacity:1;fill-rule:nonzero;stroke:none"
         id="path22"
         inkscape:connector-curvature="0" /><path
         d="m 1333.67,900.773 c 0,20.645 16.88,41.739 40.63,41.739 24.25,0 43.26,-20.586 43.26,-41.739 0,-23.281 -16.39,-45.488 -42.25,-45.488 -24.76,0 -41.64,22.207 -41.64,45.488 z m 76.99,-81.269 0,-271.016 -70.13,0 0,271.016 70.13,0"
         style="fill:#ffffff;fill-opacity:1;fill-rule:nonzero;stroke:none"
         id="path24"
         inkscape:connector-curvature="0" /><path
         d="m 1600.2,588.059 c 0,-14.629 1.56,-30.356 6.81,-39.571 l 74.42,0 c -8.46,18.985 -11.1,44.453 -11.1,66.129 l 0,110.551 c 0,84.57 -59.59,100.84 -108.14,100.84 -36.39,0 -68.56,-9.223 -101.31,-36.875 l 22.67,-34.145 c 18.5,16.274 39.61,27.641 69.71,27.641 22.68,0 44.28,-15.723 47.97,-40.645 l -62.27,-18.964 c -61.21,-17.872 -97.59,-47.153 -97.59,-98.672 0,-49.825 34.27,-82.344 75.43,-82.344 24.27,0 48.06,16.777 67.58,32.519 l 15.82,13.536 z m 1.03,117.617 c 5.27,-79.649 -31.09,-115.449 -59.06,-115.449 -16.88,0 -31.7,16.25 -31.7,40.117 0,30.879 17.44,51.465 51.72,62.344 l 39.04,12.988"
         style="fill:#ffffff;fill-opacity:1;fill-rule:nonzero;stroke:none"
         id="path26"
         inkscape:connector-curvature="0" /><path
         d="m 1714.14,548.488 70.1289,0 0,398.398 -70.1289,0 0,-398.398 z"
         style="fill:#ffffff;fill-opacity:1;fill-rule:nonzero;stroke:none"
         id="path28"
         inkscape:connector-curvature="0" /><path
         d="m 2247.33,859.074 c -17.99,9.766 -48.03,21.133 -76.56,21.133 -75.94,0 -130.78,-54.746 -130.78,-140.937 0,-89.985 60.68,-143.086 132.91,-143.086 28.51,0 54.88,8.14 74.43,18.984 L 2267.9,568 c -22.68,-13.555 -62.25,-25.996 -98.15,-25.996 -128.24,0 -208.94,86.719 -208.94,198.34 0,103.535 80.23,194.062 209.96,194.062 38.55,0 74.45,-14.101 99.72,-29.277 l -23.16,-46.055"
         style="fill:#ffffff;fill-opacity:1;fill-rule:nonzero;stroke:none"
         id="path30"
         inkscape:connector-curvature="0" /><path
         d="m 2407.11,542.004 c 82.88,0 138.72,61.211 138.72,145.234 0,87.813 -67.49,138.77 -138.72,138.77 -70.72,0 -138.22,-50.957 -138.22,-138.77 0,-84.023 55.92,-145.234 138.22,-145.234 z m 0,40.098 c -50.13,0 -63.82,57.441 -63.82,105.136 0,44.981 15.8,98.653 63.82,98.653 49.07,0 64.34,-53.672 64.34,-98.653 0,-47.695 -13.16,-105.136 -64.34,-105.136"
         style="fill:#ffffff;fill-opacity:1;fill-rule:nonzero;stroke:none"
         id="path32"
         inkscape:connector-curvature="0" /><path
         d="m 2576.08,548.488 70.207,0 0,398.398 -70.207,0 0,-398.398 z"
         style="fill:#ffffff;fill-opacity:1;fill-rule:nonzero;stroke:none"
         id="path34"
         inkscape:connector-curvature="0" /><path
         d="m 2690.51,548.488 70.1367,0 0,398.398 -70.1367,0 0,-398.398 z"
         style="fill:#ffffff;fill-opacity:1;fill-rule:nonzero;stroke:none"
         id="path36"
         inkscape:connector-curvature="0" /><path
         d="m 3035.67,677.512 c 5.29,80.742 -29,148.496 -111.31,148.496 -75.43,0 -134.59,-53.125 -134.59,-136.602 0,-89.457 59.63,-147.402 139.34,-147.402 30.04,0 67.5,8.672 103.41,30.332 l -20.05,37.93 c -17.39,-12.446 -44.87,-21.7 -70.71,-21.7 -43.77,0 -78.63,37.965 -77.03,88.946 l 170.94,0 z m -169.84,39.019 c -0.59,36.25 17.36,69.36 57.44,69.36 34.86,0 49.08,-28.188 46.46,-69.36 l -103.9,0"
         style="fill:#ffffff;fill-opacity:1;fill-rule:nonzero;stroke:none"
         id="path38"
         inkscape:connector-curvature="0" /><path
         d="m 3608.72,677.512 c 5.25,80.742 -29.01,148.496 -111.31,148.496 -75.47,0 -134.55,-53.125 -134.55,-136.602 0,-89.457 59.59,-147.402 139.29,-147.402 30.08,0 67.54,8.672 103.4,30.332 l -20.04,37.93 c -17.42,-12.446 -44.84,-21.7 -70.7,-21.7 -43.81,0 -78.57,37.965 -77.03,88.946 l 170.94,0 z m -169.89,39.019 c -0.5,36.25 17.41,69.36 57.52,69.36 34.79,0 49.08,-28.188 46.43,-69.36 l -103.95,0"
         style="fill:#ffffff;fill-opacity:1;fill-rule:nonzero;stroke:none"
         id="path40"
         inkscape:connector-curvature="0" /><path
         d="m 3333.7,819.504 -70.18,0 0,-33.066 -1.03,0 c -14.77,24.39 -46.45,39.57 -78.64,39.57 -71.76,0 -122.4,-68.305 -122.4,-138.77 0,-86.718 45.92,-145.234 116.09,-145.234 40.12,0 67.52,22.754 84.95,45.527 l 1.03,0 0,-35.781 c 0,-62.871 -35.86,-92.148 -82.32,-92.148 -35.86,0 -65.94,7.05 -91.76,23.3 l -13.75,-44.433 c 31.15,-16.25 71.27,-25.508 110.8,-25.508 78.63,0 147.21,39.59 147.21,159.902 l 0,246.641 z m -134.01,-36.875 c 42.23,0 63.83,-43.906 63.83,-91.059 0,-54.195 -20.06,-106.226 -67.03,-106.226 -40.61,0 -60.63,50.957 -60.63,103.535 0,52.559 18.46,93.75 63.83,93.75"
         style="fill:#ffffff;fill-opacity:1;fill-rule:nonzero;stroke:none"
         id="path42"
         inkscape:connector-curvature="0" /><path
         d="m 0,385.84 74.9414,0 0,-328.3986 157.7146,0 0,-50.95702 L 0,6.48438 0,385.84"
         style="fill:#ffffff;fill-opacity:1;fill-rule:nonzero;stroke:none"
         id="path44"
         inkscape:connector-curvature="0" /><path
         d="m 644.348,245.508 c 25.031,26.015 59.949,38.496 94.945,38.496 64.953,0 96.066,-34.707 96.066,-102.988 l 0,-174.53162 -70.504,0 0,166.38662 c 0,37.922 -17.222,62.852 -55.539,62.852 -36.128,0 -64.421,-23.274 -64.421,-67.715 l 0,-161.52362 -70.524,0 0,270.97662 69.977,0 0,-31.953"
         style="fill:#ffffff;fill-opacity:1;fill-rule:nonzero;stroke:none"
         id="path46"
         inkscape:connector-curvature="0" /><path
         d="m 1085.16,6.48438 70.52,0 0,398.33962 -70.52,0 0,-158.808 -1.12,0 c -16.65,23.886 -48.83,37.988 -84.919,37.988 C 924.68,284.004 872.5,215.695 872.5,145.234 872.5,58.5352 920.793,0 993.555,0 c 43.315,0 72.175,22.7539 90.485,45.5273 l 1.12,0 0,-39.04292 z M 1017.97,240.586 c 44.44,0 67.19,-43.895 67.19,-91.016 0,-54.2262 -21.07,-106.2302 -70.53,-106.2302 -42.735,0 -63.829,50.9454 -63.829,103.5152 0,52.571 19.453,93.731 67.169,93.731"
         style="fill:#ffffff;fill-opacity:1;fill-rule:nonzero;stroke:none"
         id="path48"
         inkscape:connector-curvature="0" /><path
         d="m 1338.93,0 c 87.16,0 146,61.25 146,145.234 0,87.774 -71.04,138.77 -146,138.77 -74.42,0 -145.49,-50.996 -145.49,-138.77 C 1193.44,61.25 1252.31,0 1338.93,0 Z m 0,40.1172 c -52.72,0 -67.21,57.4336 -67.21,105.1168 0,44.969 16.64,98.633 67.21,98.633 51.67,0 67.73,-53.664 67.73,-98.633 0,-47.6832 -13.84,-105.1168 -67.73,-105.1168"
         style="fill:#ffffff;fill-opacity:1;fill-rule:nonzero;stroke:none"
         id="path50"
         inkscape:connector-curvature="0" /><path
         d="m 1593.24,245.508 c 25,26.015 59.97,38.496 94.93,38.496 64.97,0 96.09,-34.707 96.09,-102.988 l 0,-174.53162 -70.51,0 0,166.38662 c 0,37.922 -17.22,62.852 -55.56,62.852 -36.06,0 -64.4,-23.274 -64.4,-67.715 l 0,-161.52362 -70.52,0 0,270.97662 69.97,0 0,-31.953"
         style="fill:#ffffff;fill-opacity:1;fill-rule:nonzero;stroke:none"
         id="path52"
         inkscape:connector-curvature="0" /><path
         d="m 388.84,0 c 87.156,0 146.015,61.25 146.015,145.234 0,87.774 -71.085,138.77 -146.015,138.77 -74.426,0 -145.488,-50.996 -145.488,-138.77 C 243.352,61.25 302.191,0 388.84,0 Z m 0,40.1172 c -52.805,0 -67.199,57.4336 -67.199,105.1168 0,44.969 16.64,98.633 67.199,98.633 51.633,0 67.742,-53.664 67.742,-98.633 0,-47.6832 -13.922,-105.1168 -67.742,-105.1168"
         style="fill:#ffffff;fill-opacity:1;fill-rule:nonzero;stroke:none"
         id="path54"
         inkscape:connector-curvature="0" /></g></g></svg>