<?xml version="1.0" encoding="utf-8"?>
<!-- Generator: Adobe Illustrator 21.1.0, SVG Export Plug-In . SVG Version: 6.00 Build 0)  -->
<svg version="1.1" id="Layer_1" xmlns="http://www.w3.org/2000/svg" xmlns:xlink="http://www.w3.org/1999/xlink" x="0px" y="0px"
	 viewBox="0 0 266 72.8" style="enable-background:new 0 0 266 72.8;" xml:space="preserve">
<g>
	<path d="M51.6,0.2h6.6v30.9h-6.6V0.2z"/>
	<path d="M92.2,19.2c0-2.9-1.5-4.4-3.5-4.4c-2.2,0-4,1.8-4,5.1v11.3h-6V19.2c0-2.9-1.5-4.4-3.5-4.4c-2.2,0-4,1.8-4,5.1v11.3h-6V9.5
		h6v2.7c0,0,2-3.1,5.7-3.1c4.6,0,6.2,3.8,6.2,3.8s2.4-3.8,7.3-3.8c4.6,0,7.7,3.1,7.7,9.5v12.6h-6V19.2z"/>
	<path d="M110.4,28.5v11.9h-6V9.5h6v2.7c0,0,2.2-3.1,6.4-3.1c5.5,0,10.4,4.9,10.4,11.3c0,6.4-4.9,11.3-10.4,11.3
		C112.6,31.6,110.4,28.5,110.4,28.5z M110.4,20.3c0,3.5,2.4,6,5.3,6c2.9,0,5.3-2.4,5.3-6c0-3.5-2.4-6-5.3-6
		C112.8,14.4,110.4,16.8,110.4,20.3z"/>
	<path d="M136.9,22.3c0.4,2.2,2.4,4.2,5.7,4.2c3.8,0,5.7-2.7,5.7-2.7l3.1,4c0,0-3.3,3.8-9.3,3.8c-6.4,0-11.5-5.1-11.5-11.3
		S135.8,9.1,142,9.1c6.2,0,10.8,4.6,10.8,10.8c0,1.5-0.2,2.4-0.2,2.4H136.9z M136.9,18.1h9.9c-0.4-2.2-2.2-4-4.9-4
		C139.3,14.1,137.5,15.9,136.9,18.1z"/>
	<path d="M170.7,15.2c0,0-0.7-0.2-2-0.2c-3.1,0-5.1,2-5.1,5.7v10.4h-6V9.5h6v2.7c0,0,2.2-2.9,6.2-2.9h0.9V15.2z"/>
	<path d="M177.5,6.6c-2,0-3.3-1.3-3.3-3.3s1.3-3.3,3.3-3.3c2.2,0,3.5,1.3,3.5,3.3S179.7,6.6,177.5,6.6z M180.6,31.2h-6V9.5h6V31.2z"
		/>
	<path d="M199,28.9c0,0-2.2,2.7-6,2.7c-4.4,0-7.3-2.9-7.3-6.2c0-3.5,2.4-6,6.4-6.7l6.8-1.2c0-1.8-1.3-3.1-3.8-3.1
		c-3.3,0-4.9,2.2-4.9,2.2l-3.3-3.3c0,0,2.9-4.2,8.6-4.2c5.5,0,9.3,3.8,9.3,8.6v13.5c0,0-4.6,0-6,0V28.9z M199,21.9v-0.7l-4.9,0.9
		c-1.5,0.3-2.4,1.1-2.4,2.4c0,1.3,0.9,2.2,2.9,2.2C197.2,26.7,199,25,199,21.9z"/>
	<path d="M217.3,31.2h-6V0.2h6V31.2z"/>
	<path d="M0,41.5h7.1l8,23l8-23H30L18.6,72.4h-7.1L0,41.5z"/>
	<path d="M37.1,47.9c-2,0-3.3-1.3-3.3-3.3s1.3-3.3,3.3-3.3c2.2,0,3.5,1.3,3.5,3.3S39.3,47.9,37.1,47.9z M40.2,72.4h-6V50.7h6V72.4z"
		/>
	<path d="M58.6,57.2c0,0-1.3-1.8-3.5-1.8c-1.8,0-2.7,0.9-2.7,1.8c0,3.1,9.9,1.5,9.9,8.8c0,3.8-3.1,6.8-8.6,6.8c-6.2,0-8.8-4-8.8-4
		l3.3-3.3c0,0,1.8,2.4,4.6,2.4c2,0,2.9-0.9,2.9-2c0-3.3-9.9-1.7-9.9-8.8c0-3.3,3.5-6.8,8.4-6.8c5.1,0,7.5,3.3,7.5,3.3L58.6,57.2z"/>
	<path d="M81.7,70.2c0,0-2.2,2.7-6.2,2.7c-4.9,0-8.4-3.5-8.4-9.1V50.7h6v12.4c0,2.4,1.8,4.2,4.2,4.2c2.7,0,4.4-1.8,4.4-5.1V50.7h6
		v21.7h-6V70.2z"/>
	<path d="M106.1,70.2c0,0-2.2,2.7-6,2.7c-4.4,0-7.3-2.9-7.3-6.2c0-3.5,2.4-6,6.4-6.7l6.8-1.2c0-1.8-1.3-3.1-3.8-3.1
		c-3.3,0-4.9,2.2-4.9,2.2l-3.3-3.3c0,0,2.9-4.2,8.6-4.2c5.5,0,9.3,3.8,9.3,8.6v13.5c0,0-4.6,0-6,0V70.2z M106.1,63.1v-0.7l-4.9,0.9
		c-1.5,0.3-2.4,1.1-2.4,2.4c0,1.3,0.9,2.2,2.9,2.2C104.3,68,106.1,66.2,106.1,63.1z"/>
	<path d="M124.4,72.4h-6V41.5h6V72.4z"/>
	<path d="M133.9,47.9c-2,0-3.3-1.3-3.3-3.3s1.3-3.3,3.3-3.3c2.2,0,3.5,1.3,3.5,3.3S136.1,47.9,133.9,47.9z M137,72.4h-6V50.7h6V72.4
		z"/>
	<path d="M155.3,57.2c0,0-1.3-1.8-3.5-1.8c-1.8,0-2.7,0.9-2.7,1.8c0,3.1,9.9,1.5,9.9,8.8c0,3.8-3.1,6.8-8.6,6.8c-6.2,0-8.8-4-8.8-4
		l3.3-3.3c0,0,1.8,2.4,4.6,2.4c2,0,2.9-0.9,2.9-2c0-3.3-9.9-1.7-9.9-8.8c0-3.3,3.5-6.8,8.4-6.8c5.1,0,7.5,3.3,7.5,3.3L155.3,57.2z"
		/>
	<path d="M175.9,70.2c0,0-2.2,2.7-6,2.7c-4.4,0-7.3-2.9-7.3-6.2c0-3.5,2.4-6,6.4-6.7l6.8-1.2c0-1.8-1.3-3.1-3.8-3.1
		c-3.3,0-4.9,2.2-4.9,2.2l-3.3-3.3c0,0,2.9-4.2,8.6-4.2c5.5,0,9.3,3.8,9.3,8.6v13.5c0,0-4.6,0-6,0V70.2z M175.9,63.1v-0.7l-4.9,0.9
		c-1.5,0.3-2.4,1.1-2.4,2.4c0,1.3,0.9,2.2,2.9,2.2C174.1,68,175.9,66.2,175.9,63.1z"/>
	<path d="M190.7,44.3h5.3v6.8h4.4v5.3H196v8.6c0,1.3,1.1,2.4,2.7,2.4c1.3,0,2.2-0.4,2.2-0.4v5.1c0,0-1.8,0.7-4,0.7
		c-4.4,0-6.8-2.4-6.8-7.5v-8.8h-3.8v-5.3h2c1.3,0,2.4-1.1,2.4-2.9V44.3z"/>
	<path d="M209.5,47.9c-2,0-3.3-1.3-3.3-3.3s1.3-3.3,3.3-3.3c2.2,0,3.5,1.3,3.5,3.3S211.7,47.9,209.5,47.9z M212.5,72.4h-6V50.7h6
		V72.4z"/>
	<path d="M229.1,72.8c-6.2,0-11.5-5.3-11.5-11.3s5.3-11.3,11.5-11.3c6.2,0,11.5,5.3,11.5,11.3S235.3,72.8,229.1,72.8z M229.1,67.3
		c2.9,0,5.3-2.4,5.3-5.7c0-3.3-2.4-5.7-5.3-5.7c-2.9,0-5.3,2.4-5.3,5.7C223.8,64.9,226.2,67.3,229.1,67.3z"/>
	<path d="M251.4,53.4c0,0,2.2-3.1,6.2-3.1c4.9,0,8.4,3.5,8.4,9.5v12.6h-6V60.5c0-2.7-1.8-4.4-4.2-4.4c-2.7,0-4.4,1.8-4.4,5.1v11.3
		h-6V50.7h6V53.4z"/>
</g>
</svg>
