<svg xmlns="http://www.w3.org/2000/svg" viewBox="0 0 200 280"><title>imvi</title><g id="Layer_2" data-name="Layer 2"><g id="Layer_1-2" data-name="Layer 1"><rect width="40" height="120" rx="5.86" ry="5.86"/><path d="M80,114.14v-100A5.86,5.86,0,0,1,90,10l45.86,45.86a5.86,5.86,0,0,0,8.28,0L190,10a5.86,5.86,0,0,1,10,4.14v100a5.86,5.86,0,0,1-5.86,5.86H85.86A5.86,5.86,0,0,1,80,114.14Z"/><path d="M0,165.86v71.72a5.86,5.86,0,0,0,1.72,4.14l36.57,36.57A5.86,5.86,0,0,0,42.43,280H77.57a5.86,5.86,0,0,0,4.14-1.72l36.57-36.57a5.86,5.86,0,0,0,1.72-4.14V165.86a5.86,5.86,0,0,0-5.86-5.86H85.86A5.86,5.86,0,0,0,80,165.86v8.28A5.86,5.86,0,0,1,74.14,180H45.86A5.86,5.86,0,0,1,40,174.14v-8.28A5.86,5.86,0,0,0,34.14,160H5.86A5.86,5.86,0,0,0,0,165.86Z"/><rect x="160" y="160" width="40" height="120" rx="5.86" ry="5.86"/></g></g></svg>