<svg xmlns="http://www.w3.org/2000/svg" viewBox="0 0 1960 284"><title>iv-logo-v3</title><g id="Layer_2" data-name="Layer 2"><g id="Layer_1-2" data-name="Layer 1"><rect width="40" height="120" rx="5.86" ry="5.86"/><path d="M80,114.14v-100A5.86,5.86,0,0,1,90,10l45.86,45.86a5.86,5.86,0,0,0,8.28,0L190,10a5.86,5.86,0,0,1,10,4.14v100a5.86,5.86,0,0,1-5.86,5.86H85.86A5.86,5.86,0,0,1,80,114.14Z"/><path d="M240,114.14V5.86A5.86,5.86,0,0,1,245.86,0h71.72a5.86,5.86,0,0,1,4.14,1.72l34.14,34.14a5.86,5.86,0,0,1,0,8.28L321.72,78.28A5.86,5.86,0,0,1,317.57,80H285.86A5.86,5.86,0,0,0,280,85.86v28.28a5.86,5.86,0,0,1-5.86,5.86H245.86A5.86,5.86,0,0,1,240,114.14Z"/><path d="M405.86,0h100A5.86,5.86,0,0,1,510,10L484.14,35.86a5.86,5.86,0,0,0,0,8.28l11.72,11.72a5.86,5.86,0,0,1,0,8.28L484.14,75.86a5.86,5.86,0,0,0,0,8.28L510,110a5.86,5.86,0,0,1-4.14,10h-100a5.86,5.86,0,0,1-5.86-5.86V5.86A5.86,5.86,0,0,1,405.86,0Z"/><path d="M560,114.14V5.86A5.86,5.86,0,0,1,565.86,0h71.72a5.86,5.86,0,0,1,4.14,1.72l34.14,34.14a5.86,5.86,0,0,1,0,8.28L644.14,75.86a5.86,5.86,0,0,0,0,8.28L670,110a5.86,5.86,0,0,1-4.14,10H622.43a5.86,5.86,0,0,1-4.14-1.72L610,110a5.86,5.86,0,0,0-10,4.14h0a5.86,5.86,0,0,1-5.86,5.86H565.86A5.86,5.86,0,0,1,560,114.14Z"/><rect x="720" width="40" height="120" rx="5.86" ry="5.86"/><rect x="880" y="160" width="40" height="120" rx="5.86" ry="5.86"/><rect x="1440" y="160" width="40" height="120" rx="5.86" ry="5.86"/><path d="M800,114.14V42.43a5.86,5.86,0,0,1,1.72-4.14L838.28,1.72A5.86,5.86,0,0,1,842.43,0h35.15a5.86,5.86,0,0,1,4.14,1.72l36.57,36.57A5.86,5.86,0,0,1,920,42.43v71.72a5.86,5.86,0,0,1-5.86,5.86H885.86a5.86,5.86,0,0,1-5.86-5.86v-8.28a5.86,5.86,0,0,0-5.86-5.86H845.86a5.86,5.86,0,0,0-5.86,5.86v8.28a5.86,5.86,0,0,1-5.86,5.86H805.86A5.86,5.86,0,0,1,800,114.14Z"/><path d="M560,274.14V202.43a5.86,5.86,0,0,1,1.72-4.14l36.57-36.57a5.86,5.86,0,0,1,4.14-1.72h35.15a5.86,5.86,0,0,1,4.14,1.72l36.57,36.57a5.86,5.86,0,0,1,1.72,4.14v71.72a5.86,5.86,0,0,1-5.86,5.86H645.86a5.86,5.86,0,0,1-5.86-5.86v-8.28a5.86,5.86,0,0,0-5.86-5.86H605.86a5.86,5.86,0,0,0-5.86,5.86v8.28a5.86,5.86,0,0,1-5.86,5.86H565.86A5.86,5.86,0,0,1,560,274.14Z"/><path d="M1120,274.14V202.43a5.86,5.86,0,0,1,1.72-4.14l36.57-36.57a5.86,5.86,0,0,1,4.14-1.72h35.15a5.86,5.86,0,0,1,4.14,1.72l36.57,36.57a5.86,5.86,0,0,1,1.72,4.14v71.72a5.86,5.86,0,0,1-5.86,5.86h-28.28a5.86,5.86,0,0,1-5.86-5.86v-8.28a5.86,5.86,0,0,0-5.86-5.86h-28.28a5.86,5.86,0,0,0-5.86,5.86v8.28a5.86,5.86,0,0,1-5.86,5.86h-28.28A5.86,5.86,0,0,1,1120,274.14Z"/><path d="M0,165.86v71.72a5.86,5.86,0,0,0,1.72,4.14l36.57,36.57A5.86,5.86,0,0,0,42.43,280H77.57a5.86,5.86,0,0,0,4.14-1.72l36.57-36.57a5.86,5.86,0,0,0,1.72-4.14V165.86a5.86,5.86,0,0,0-5.86-5.86H85.86A5.86,5.86,0,0,0,80,165.86v8.28A5.86,5.86,0,0,1,74.14,180H45.86A5.86,5.86,0,0,1,40,174.14v-8.28A5.86,5.86,0,0,0,34.14,160H5.86A5.86,5.86,0,0,0,0,165.86Z"/><path d="M400,165.86v91.72a5.86,5.86,0,0,0,1.72,4.14l16.57,16.57a5.86,5.86,0,0,0,4.14,1.72h75.15a5.86,5.86,0,0,0,4.14-1.72l16.57-16.57a5.86,5.86,0,0,0,1.72-4.14V165.86a5.86,5.86,0,0,0-5.86-5.86H485.86a5.86,5.86,0,0,0-5.86,5.86v28.28a5.86,5.86,0,0,1-5.86,5.86H445.86a5.86,5.86,0,0,1-5.86-5.86V165.86a5.86,5.86,0,0,0-5.86-5.86H405.86A5.86,5.86,0,0,0,400,165.86Z"/><path d="M960,5.86V114.14a5.86,5.86,0,0,0,5.86,5.86h108.28a5.86,5.86,0,0,0,5.86-5.86V85.86a5.86,5.86,0,0,0-5.86-5.86h-68.28a5.86,5.86,0,0,1-5.86-5.86V5.86A5.86,5.86,0,0,0,994.14,0H965.86A5.86,5.86,0,0,0,960,5.86Z"/><path d="M720,169.86V278.14a5.86,5.86,0,0,0,5.86,5.86H834.14a5.86,5.86,0,0,0,5.86-5.86V249.86a5.86,5.86,0,0,0-5.86-5.86H765.86a5.86,5.86,0,0,1-5.86-5.86V169.86a5.86,5.86,0,0,0-5.86-5.86H725.86A5.86,5.86,0,0,0,720,169.86Z"/><rect x="160" y="160" width="40" height="120" rx="5.86" ry="5.86"/><path d="M240,217.57V182.43a5.86,5.86,0,0,1,1.72-4.14l16.57-16.57a5.86,5.86,0,0,1,4.14-1.72h75.15a5.86,5.86,0,0,1,4.14,1.72l16.57,16.57a5.86,5.86,0,0,1,1.72,4.14v11.72a5.86,5.86,0,0,1-5.86,5.86h0A5.86,5.86,0,0,0,350,210l8.28,8.28a5.86,5.86,0,0,1,1.72,4.14v35.15a5.86,5.86,0,0,1-1.72,4.14l-16.57,16.57a5.86,5.86,0,0,1-4.14,1.72H262.05a5.86,5.86,0,0,1-3.66-1.28l-16.2-13a5.86,5.86,0,0,1-2.2-4.57V245.86a5.86,5.86,0,0,1,5.86-5.86h0A5.86,5.86,0,0,0,250,230l-8.28-8.28A5.86,5.86,0,0,1,240,217.57Z"/><path d="M960,217.57V182.43a5.86,5.86,0,0,1,1.72-4.14l16.57-16.57a5.86,5.86,0,0,1,4.14-1.72h75.15a5.86,5.86,0,0,1,4.14,1.72l16.57,16.57a5.86,5.86,0,0,1,1.72,4.14v11.72a5.86,5.86,0,0,1-5.86,5.86h0a5.86,5.86,0,0,0-4.14,10l8.28,8.28a5.86,5.86,0,0,1,1.72,4.14v35.15a5.86,5.86,0,0,1-1.72,4.14l-16.57,16.57a5.86,5.86,0,0,1-4.14,1.72H982.05a5.86,5.86,0,0,1-3.66-1.28l-16.2-13a5.86,5.86,0,0,1-2.2-4.57V245.86a5.86,5.86,0,0,1,5.86-5.86h0A5.86,5.86,0,0,0,970,230l-8.28-8.28A5.86,5.86,0,0,1,960,217.57Z"/><path d="M1840,217.57V182.43a5.86,5.86,0,0,1,1.72-4.14l16.57-16.57a5.86,5.86,0,0,1,4.14-1.72h75.15a5.86,5.86,0,0,1,4.14,1.72l16.57,16.57a5.86,5.86,0,0,1,1.72,4.14v11.72a5.86,5.86,0,0,1-5.86,5.86h0a5.86,5.86,0,0,0-4.14,10l8.28,8.28a5.86,5.86,0,0,1,1.72,4.14v35.15a5.86,5.86,0,0,1-1.72,4.14l-16.57,16.57a5.86,5.86,0,0,1-4.14,1.72h-75.52a5.86,5.86,0,0,1-3.66-1.28l-16.2-13a5.86,5.86,0,0,1-2.2-4.57V245.86a5.86,5.86,0,0,1,5.86-5.86h0a5.86,5.86,0,0,0,4.14-10l-8.28-8.28A5.86,5.86,0,0,1,1840,217.57Z"/><path d="M1280,194.14V165.86a5.86,5.86,0,0,1,5.86-5.86h108.28a5.86,5.86,0,0,1,5.86,5.86v28.28a5.86,5.86,0,0,1-5.86,5.86h-28.28a5.86,5.86,0,0,0-5.86,5.86v68.28a5.86,5.86,0,0,1-5.86,5.86h-28.28a5.86,5.86,0,0,1-5.86-5.86V205.86a5.86,5.86,0,0,0-5.86-5.86h-28.28A5.86,5.86,0,0,1,1280,194.14Z"/><path d="M1638.28,178.28l-16.56-16.56a5.87,5.87,0,0,0-4.15-1.72h-75.14a5.87,5.87,0,0,0-4.15,1.72l-16.56,16.56a5.87,5.87,0,0,0-1.72,4.15v75.14a5.87,5.87,0,0,0,1.72,4.15l16.56,16.56a5.87,5.87,0,0,0,4.15,1.72h75.14a5.87,5.87,0,0,0,4.15-1.72l16.56-16.56a5.87,5.87,0,0,0,1.72-4.15V182.43A5.87,5.87,0,0,0,1638.28,178.28ZM1600,234.14a5.86,5.86,0,0,1-5.86,5.86h-28.28a5.86,5.86,0,0,1-5.86-5.86V205.86a5.86,5.86,0,0,1,5.86-5.86h28.28a5.86,5.86,0,0,1,5.86,5.86Z"/><path d="M1680,274.14V165.86a5.86,5.86,0,0,1,5.86-5.86h51.72a5.86,5.86,0,0,1,4.14,1.72L1750,170a5.86,5.86,0,0,0,10-4.14h0a5.86,5.86,0,0,1,5.86-5.86h28.28a5.86,5.86,0,0,1,5.86,5.86V274.14a5.86,5.86,0,0,1-5.86,5.86h-51.72a5.86,5.86,0,0,1-4.14-1.72L1730,270a5.86,5.86,0,0,0-10,4.14h0a5.86,5.86,0,0,1-5.86,5.86h-28.28A5.86,5.86,0,0,1,1680,274.14Z"/></g></g></svg>