<?xml version="1.0" encoding="UTF-8"?>
<svg width="100pt" height="100pt" version="1.1" viewBox="0 0 100 100" xmlns="http://www.w3.org/2000/svg">
 <g>
  <path d="m45.312 68.75h9.375v3.125h-9.375z"/>
  <path d="m46.875 51.562h-3.125c0 0.39062-1.6641 1.5625-4.6875 1.5625s-4.6875-1.1719-4.6875-1.5625h-3.125c0 2.6719 3.3594 4.6875 7.8125 4.6875s7.8125-2.0156 7.8125-4.6875z"/>
  <path d="m60.938 53.125c-3.0234 0-4.6875-1.1719-4.6875-1.5625h-3.125c0 2.6719 3.3594 4.6875 7.8125 4.6875s7.8125-2.0156 7.8125-4.6875h-3.125c0 0.39062-1.6641 1.5625-4.6875 1.5625z"/>
  <path d="m0 32.812h4.6875v3.125h-4.6875z"/>
  <path d="m6.25 26.562h3.125v3.125h-3.125z"/>
  <path d="m0 26.562h3.125v3.125h-3.125z"/>
  <path d="m90.625 28.125h3.125v3.125h-3.125z"/>
  <path d="m96.875 28.125h3.125v3.125h-3.125z"/>
  <path d="m81.25 6.25h3.125v3.125h-3.125z"/>
  <path d="m87.5 6.25h3.125v3.125h-3.125z"/>
  <path d="m93.75 6.25h3.125v3.125h-3.125z"/>
  <path d="m6.25 0h3.125v3.125h-3.125z"/>
  <path d="m12.5 0h3.125v3.125h-3.125z"/>
  <path d="m18.75 0h3.125v3.125h-3.125z"/>
  <path d="m48.438 7.8125h3.125v3.125h-3.125z"/>
  <path d="m54.688 7.8125h3.125v3.125h-3.125z"/>
  <path d="m40.625 25h3.125v3.125h-3.125z"/>
  <path d="m46.875 25h3.125v3.125h-3.125z"/>
  <path d="m60.938 7.8125h3.125v3.125h-3.125z"/>
  <path d="m73.977 31.25h13.523v-3.125h-14.789c-1.0977-2.2266-2.5312-4.3047-4.2891-6.1719-4.7969-5.0859-11.293-7.8906-18.285-7.8906-6.1953 0-11.996 2.2109-16.578 6.25h-25.746v3.125h22.773c-2.2617 2.7969-3.8828 5.9688-4.7656 9.375h-18.008v3.125h17.406c-0.19922 1.5508-0.26953 3.1328-0.17578 4.7344l0.29297 4.9805c0.70312 11.969 4.9805 23.195 12.211 32.473h-0.046875c0 4.3086-3.5039 7.8125-7.8125 7.8125h-13.305c-2.9219 0-5.668 1.1367-7.7344 3.2031l-8.1914 8.1914c-0.29297 0.29297-0.45703 0.69141-0.45703 1.1055v1.5625h3.125v-0.91406l7.7344-7.7344c1.4766-1.4766 3.4375-2.2891 5.5234-2.2891h13.305c4.9414 0 9.1211-3.2969 10.473-7.8008 1.332 1.4844 2.7422 2.9102 4.2344 4.2695 0.28906 0.26172 0.66406 0.40625 1.0508 0.40625h9.375c0.38672 0 0.76563-0.14453 1.0508-0.40625 1.418-1.2891 2.7656-2.6367 4.0352-4.0391 1.4297 4.3867 5.5508 7.5703 10.406 7.5703h13.305c2.0859 0 4.0469 0.8125 5.5234 2.2891l7.7344 7.7344v0.91406h3.125v-1.5625c0-0.41406-0.16406-0.8125-0.45703-1.1055l-8.1914-8.1914c-2.0664-2.0664-4.8125-3.2031-7.7344-3.2031h-13.305c-4.2227 0-7.6484-3.3711-7.7891-7.5625 7.3516-9.3242 11.699-20.648 12.41-32.723l0.11328-1.9023h24.953v-3.125h-24.773c0.1875-3.2422-0.26172-6.4023-1.25-9.375zm-2.1602 14.219c-0.84375 14.344-7.0859 27.578-17.602 37.344h-8.1562c-10.516-9.7656-16.758-23-17.602-37.344l-0.29297-4.9805c-0.09375-1.5391-0.023437-3.0625 0.19531-4.5508h8.4922l-2.0195 2.0195 2.2109 2.2109 5.793-5.793-5.793-5.793-2.2109 2.2109 2.0195 2.0195h-7.7695c0.96875-3.2109 2.6562-6.1875 5.0391-8.7148 4.2031-4.457 9.8906-6.9102 16.016-6.9102s11.812 2.4531 16.016 6.9102c1.1719 1.2422 2.1602 2.5977 3 4.0273h-10.688l2.0195-2.0195-2.2109-2.2109-5.7969 5.793 5.793 5.793 2.2109-2.2109-2.0195-2.0195h12.203c1.125 2.8984 1.6367 6.0234 1.4453 9.2422l-0.007813 0.13281h-7.3906l2.0195-2.0195-2.2109-2.2109-5.793 5.793 5.793 5.793 2.2109-2.2109-2.0195-2.0195h7.207z"/>
 </g>
</svg>
