<?xml version="1.0" encoding="UTF-8"?>
<svg fill="#FFFFFF" width="100pt" height="100pt" version="1.1" viewBox="0 0 100 100" xmlns="http://www.w3.org/2000/svg">
 <g>
  <path d="m23.895 41.043l7.8125-7.8125 2.2109 2.2109-7.8125 7.8125z"/>
  <path d="m28.582 45.73l9.375-9.375 2.2109 2.2109-9.375 9.375z"/>
  <path d="m59.832 41.043l7.8125-7.8125 2.2109 2.2109-7.8125 7.8125z"/>
  <path d="m64.52 45.73l9.375-9.375 2.2109 2.2109-9.375 9.375z"/>
  <path d="m35.938 68.711h28.125c0.86328 0 1.5625-0.69922 1.5625-1.5625 0-5.1719-4.2031-9.375-9.375-9.375h-12.5c-5.1719 0-9.375 4.2031-9.375 9.375 0 0.86328 0.69922 1.5625 1.5625 1.5625zm9.375-7.8125h3.125v4.6875h-3.125zm9.375 4.6875h-3.125v-4.6875h3.125zm7.6133 0h-4.4883v-4.4688c2.1875 0.57031 3.9219 2.2773 4.4883 4.4688zm-20.113-4.4688v4.4688h-4.4922c0.57031-2.1914 2.3047-3.8984 4.4922-4.4688z"/>
  <path d="m42.188 71.836h3.125v3.125h-3.125z"/>
  <path d="m48.438 71.836h3.125v3.125h-3.125z"/>
  <path d="m54.688 71.836h3.125v3.125h-3.125z"/>
  <path d="m99.723 97.516c-5.4609-7.9062-13.668-14.727-23.266-19.445 6.8164-6.793 11.043-16.188 11.043-26.547v-6.25c0-3.9844-0.62891-7.8203-1.7852-11.422l2.4844-1.2422c0.52734-0.26562 0.86328-0.80859 0.86328-1.3984v-3.5625l3.6172-1.207c0.64062-0.21094 1.0703-0.80859 1.0703-1.4805v-3.5625l3.6172-1.207-0.98438-2.9648-4.6875 1.5625c-0.64062 0.21484-1.0703 0.80859-1.0703 1.4844v3.5625l-3.6172 1.2031c-0.64062 0.21484-1.0703 0.80859-1.0703 1.4844v3.7227l-1.3086 0.65234c-1-2.3984-2.2422-4.6719-3.6953-6.7891l2.3711-0.78906c0.64062-0.21484 1.0703-0.8125 1.0703-1.4844v-3.5625l3.6172-1.207c0.64062-0.21094 1.0703-0.80859 1.0703-1.4805v-3.5625l3.6172-1.207c0.64062-0.21094 1.0703-0.80859 1.0703-1.4805v-3.8516l3.9922-2.6602-1.7344-2.6016-4.6875 3.125c-0.43359 0.28906-0.69531 0.77734-0.69531 1.3008v3.5625l-3.6172 1.2031c-0.64062 0.21484-1.0703 0.8125-1.0703 1.4844v3.5625l-3.6172 1.2031c-0.64062 0.21484-1.0703 0.80859-1.0703 1.4844v3.5625l-2.293 0.76562c-1.6094-1.9531-3.4141-3.7383-5.3789-5.332l1.9141-0.63672c0.64062-0.21484 1.0703-0.8125 1.0703-1.4844v-3.5625l3.6172-1.207c0.64062-0.21094 1.0703-0.80859 1.0703-1.4805v-3.5625l3.6172-1.207-0.98438-2.9648-4.6875 1.5625c-0.64062 0.21484-1.0703 0.8125-1.0703 1.4844v3.5625l-3.6172 1.2031c-0.64062 0.21484-1.0703 0.8125-1.0703 1.4844v3.5625l-2.957 0.98437c-5.8945-3.8594-12.926-6.1094-20.48-6.1094s-14.586 2.2539-20.48 6.1094l-2.957-0.98828v-3.5586c0-0.67188-0.42969-1.2695-1.0703-1.4844l-3.6172-1.2031v-3.5625c0-0.67188-0.42969-1.2695-1.0703-1.4844l-4.6875-1.5625-0.98438 2.9648 3.6172 1.207v3.5625c0 0.67187 0.42969 1.2695 1.0703 1.4805l3.6172 1.207v3.5625c0 0.67187 0.42969 1.2695 1.0703 1.4805l1.9141 0.63672c-1.9648 1.5938-3.7695 3.3789-5.3789 5.332l-2.293-0.76562v-3.5625c0-0.67188-0.42969-1.2695-1.0703-1.4805l-3.6172-1.207v-3.5586c0-0.67188-0.42969-1.2695-1.0703-1.4844l-3.6172-1.2031v-3.5625c0-0.52344-0.26172-1.0117-0.69531-1.3008l-4.6875-3.125-1.7344 2.5977 3.9922 2.6641v3.8516c0 0.67187 0.42969 1.2695 1.0703 1.4805l3.6172 1.207v3.5625c0 0.67187 0.42969 1.2695 1.0703 1.4805l3.6172 1.207v3.5625c0 0.67187 0.42969 1.2695 1.0703 1.4805l2.3711 0.78906c-1.4531 2.1172-2.6953 4.3906-3.6953 6.7891l-1.3086-0.65234v-3.7227c0-0.67188-0.42969-1.2656-1.0703-1.4805l-3.6172-1.207v-3.5625c0-0.67188-0.42969-1.2656-1.0703-1.4805l-4.6875-1.5625-0.98828 2.9609 3.6211 1.2109v3.5625c0 0.67187 0.42969 1.2695 1.0703 1.4805l3.6172 1.207v3.5625c0 0.59375 0.33594 1.1328 0.86328 1.3984l2.4844 1.2422c-1.1562 3.6016-1.7852 7.4375-1.7852 11.422v6.25c0 10.359 4.2266 19.754 11.043 26.547-9.5977 4.7188-17.809 11.531-23.266 19.438-0.17969 0.26172-0.27734 0.57031-0.27734 0.89063v1.5625h3.125v-1.0703c5.3711-7.6094 13.465-14.133 22.906-18.555 5.0078 4.1758 11.121 7.0625 17.828 8.1758 0.16406 0.97266 0.55469 1.8594 1.1172 2.625l-2.6719 6.6797c-0.078126 0.18359-0.11719 0.38281-0.11719 0.58203v1.5625h3.125v-1.2617l2.2031-5.5078c0.76172 0.33203 1.6016 0.51953 2.4844 0.51953s1.7227-0.1875 2.4844-0.51953l2.2031 5.5078v1.2617h3.125v-1.5625c0-0.19922-0.039062-0.39453-0.10938-0.57813l-2.6719-6.6797c0.5625-0.76562 0.94922-1.6562 1.1172-2.625 6.7031-1.1094 12.816-4 17.824-8.1758 9.4414 4.418 17.531 10.949 22.906 18.559v1.0664h3.125v-1.5586c-0.003906-0.32031-0.10156-0.63281-0.28125-0.89062zm-49.723-86.617c16.82 0 30.848 12.145 33.797 28.125h-2.6367c-0.78125-7.0195-6.7461-12.5-13.969-12.5-7.2266 0-13.191 5.4805-13.969 12.5h-6.4336c-0.78125-7.0195-6.7461-12.5-13.969-12.5-7.2266 0-13.191 5.4805-13.969 12.5h-2.6367c2.9375-15.98 16.965-28.125 33.785-28.125zm28.125 29.688c0 6.0312-4.9062 10.938-10.938 10.938s-10.938-4.9062-10.938-10.938 4.9062-10.938 10.938-10.938 10.938 4.9062 10.938 10.938zm-34.375 0c0 6.0312-4.9062 10.938-10.938 10.938s-10.938-4.9062-10.938-10.938 4.9062-10.938 10.938-10.938 10.938 4.9062 10.938 10.938zm-28.125 10.938v-6.25c0-1.0547 0.054688-2.0938 0.14844-3.125h3.0703c0.78125 7.0195 6.7461 12.5 13.969 12.5 7.2266 0 13.188-5.4805 13.969-12.5h6.4336c0.78125 7.0195 6.7461 12.5 13.969 12.5 7.2266 0 13.188-5.4805 13.969-12.5h3.0703c0.09375 1.0312 0.14844 2.0703 0.14844 3.125v6.25c0 18.953-15.422 34.375-34.375 34.375-18.949 0-34.371-15.422-34.371-34.375zm34.375 39.062c-1.1953 0-2.2266-0.68359-2.75-1.6719 0.91016 0.066407 1.8242 0.10938 2.75 0.10938s1.8398-0.046876 2.75-0.10938c-0.52344 0.98828-1.5547 1.6719-2.75 1.6719z"/>
  <path d="m40.625 21.836h18.75v3.125h-18.75z"/>
  <path d="m40.625 15.586h18.75v3.125h-18.75z"/>
  <path d="m76.562 68.711v-3.125c-2.5859 0-4.6875-2.1016-4.6875-4.6875h-3.125c0 4.3047 3.5039 7.8125 7.8125 7.8125z"/>
  <path d="m31.25 60.898h-3.125c0 2.5859-2.1016 4.6875-4.6875 4.6875v3.125c4.3086 0 7.8125-3.5078 7.8125-7.8125z"/>
 </g>
</svg>
