<svg xmlns="http://www.w3.org/2000/svg" viewBox="0 0 225.91 429.36"><defs><style>.cls-1{fill:#fff;}</style></defs><title>Asset 3</title><g id="Layer_2" data-name="Layer 2"><g id="Layer_1-2" data-name="Layer 1"><path class="cls-1" d="M122.85,132.39c-.21,27.21-.38,49.6,1,61.52,1.07,8.23,2.72,14.76,8.38,15.94a39.08,39.08,0,0,0,7.36.91c2.55,0,3.11.88,3.11,1.73,0,1.7-1.43,2.26-4.55,2.23-8.5-.06-26.35-1-27.77-1.06s-19.56.7-35.15.58c-3.12,0-4.25-.88-4.23-2.3,0-.85.86-1.69,3.41-1.67,1.7,0,7.66-.51,11.63-1,8.51-1.07,10.26-7.29,11.17-15.51,1.51-11.89,1.68-34.29,1.88-61.5l.38-49.89c.33-44.22.4-52.16-.1-61.23C98.83,11.17,96.59,6.33,89,4.86A42.06,42.06,0,0,0,81.87,4c-1.13,0-2.26-.58-2.25-1.72C79.63.53,81.05,0,84.17,0c8.5.06,26.35,1.05,27.77,1.06s19.28-.7,28.64-.63c3.12,0,4.53.6,4.52,2.3,0,1.13-1.15,1.69-2.28,1.68A37.19,37.19,0,0,0,134,5.48c-6.25,1.37-9.12,6.17-9.76,15.8-.64,9.07-.7,17-1,61.22Z"/><path class="cls-1" d="M121.51,411.86c-5.49,13.56-6.94,17.52-10.34,17.5-2.83,0-3.93-4.57-11.74-21.63C93,393.79,80.5,363.08,63.52,321.56c-14.19-35-28.11-69.1-31.17-77.06C24.85,225.17,20.63,220.32,17,217.74c-5.36-3.44-11.6-3.49-13.58-3.5-2.27,0-3.4-.59-3.39-2s1.72-2,4.83-1.95c8.22.06,20.4,1,22.1,1,3.4,0,16.45-.73,27.78-.64,4.54,0,6.23.62,6.22,2.31,0,1.42-1.43,1.69-3.13,1.68-3.12,0-7.37-.06-10.78,1.05a7,7,0,0,0-3.73,6.49c0,2.55,1.08,6.53,2.47,10.79,6.08,20.46,43.31,119.67,59.47,157.78l59-150.08c3.18-7.91,5.79-15.55,5.81-18.1a5.68,5.68,0,0,0-3.64-5.7c-2.54-1.15-7.64-1.48-10.76-1.5-2,0-2.83-.59-2.82-2s2.57-2,7.67-1.92c10.77.08,23,1,25.79,1,3.4,0,18.71-.71,32.32-.6,4.53,0,7.37.34,7.35,2,0,1.13-.58,2-2.28,2A44.08,44.08,0,0,0,212.85,217c-9.94,2.76-14.22,5.84-20.58,21.67Z"/></g></g></svg>